<svg version="1.1" id="Layer_1" xmlns="http://www.w3.org/2000/svg" xmlns:xlink="http://www.w3.org/1999/xlink" x="0px" y="0px" viewBox="0 0 2250 450" style="enable-background:new 0 0 3001 5600;" xml:space="preserve">
<style type="text/css">
	.st0{fill:#cf461f;}
</style>
<path class="st0" d="M2017.7,334c-11,7.3-21.6,11.9-32.6,11.9c-16.1,0-23.9-9.2-23.9-28.9V162.8h51.9v-26.6h-51.9V71.5h-20.6
	c-26.2,32.6-62.4,60.2-101.9,73.9v17.4h25.2v152.9c0,55.5,31.2,78,75.7,78c39.5,0,66.6-16.5,85.4-47.7L2017.7,334z M1832.6,369.4
	c-17.4-1.4-24.8-2.7-24.8-16.5V207.8c0-51.4-27.1-76.2-72.1-76.2c-44.1,0-70.7,24.8-87.2,46.8l1.8-46.8h-18.8l-103.8,27.5v14.7
	l24.8,15.6v163.4c0,13.8-7.8,15.2-24.8,16.5v19.7H1672v-19.7c-17.5-1.4-23.4-2.7-23.4-16.5V193.6c10.6-4.1,21.1-6.4,34.4-6.4
	c23.4,0,28.9,11.9,28.9,28.9v136.8c0,13.8-6,15.2-23.4,16.5v19.7h144.1V369.4z M1488.4,68.3c0-24.8-18.8-46.4-49.6-46.4
	c-31.2,0-49.6,21.6-49.6,46.4c0,24.3,18.4,45.9,49.6,45.9C1469.6,114.2,1488.4,92.6,1488.4,68.3 M1510,369.4
	c-17-1.4-24.3-2.7-24.3-16.5V131.6h-17l-103.8,27.5v14.7l24.3,15.6v163.4c0,13.8-7.3,15.2-24.3,16.5v19.7H1510V369.4z M1352.1,139.4
	c-5-4.6-12.9-7.8-24.8-7.8c-29.8,0-46.8,16.5-64.7,72.5l1.8-72.5H1246l-104.2,27.5v14.7l24.8,15.6v163.4c0,13.8-7.3,15.2-24.8,16.5
	v19.7h157v-19.7c-25.7-3.7-36.3-5-36.3-25.2V223.9c20.2-12.4,47.7-13.3,77.6-13.3h11.9V139.4z M1128.5,161.5
	c0-57.4-43.2-99.6-135.4-99.6H823.7V83c30.3,3.2,32.1,7.3,32.1,31.2v222.6c0,23.9-1.8,28-32.1,31.2v21.1h187.7V368
	c-40.4-1.8-53.7-7.3-53.7-31.2v-72.1H988C1083.1,264.7,1128.5,227.6,1128.5,161.5 M797.5,317.1c-16.5,24.8-37.2,39.5-69.8,39.5
	c-47.3,0-83.1-40.4-80.3-112h153.3v-9.6c0-54.2-31.2-94.5-90.9-94.5c-62,0-109.3,55.5-109.3,133.1c0,68.4,40.9,120.3,107.9,120.3
	c50.9,0,84-30.3,95-73.4L797.5,317.1z M590.5,375.8c-23-1.9-30.7-5.1-30.7-22.1V216.5c0-50.5-21.1-76.2-64.7-76.2
	c-37.2,0-64.3,21.1-84.9,44.5V24.2h-7.8l-73.9,23v6.9l29.4,16.1v283.7c0,17-7.4,20.2-30.8,22.1v13.3h113.4v-13.3
	c-23.4-1.9-30.3-5.1-30.3-22.1v-157c16.1-13.3,36.7-24.3,58.3-24.3c26.6,0,39.5,13.8,39.5,45v136.3c0,17-7.8,20.2-30.7,22.1v13.3
	h113.4V375.8z M310.5,61.8H31.9L25,164.2h12.4C64.9,96.7,75.5,77.5,114,77.5h30.3v265.8c0,26.2-12.4,27.5-44.5,32.1v13.8h142.8
	v-13.8c-31.7-4.6-43.6-6-43.6-32.1V77.5h29.8c38.6,0,48.6,19.3,76.7,86.8h12.4L310.5,61.8z M1029.4,161.5
	c0,46.8-23.4,76.7-65.2,76.7h-6.4V85.3h6.4C1002.3,85.3,1029.4,112.3,1029.4,161.5 M648.8,229.9c3.7-42.2,23.4-73.9,56.9-73.9
	s46.8,30.8,46.8,73.9H648.8z"></path>
</svg>